<svg xmlns="http://www.w3.org/2000/svg" width="99" height="26" fill="none"><path fill="#ED4B5E" d="M13.256 14.524v4.356c0 2.112-.564 3.72-1.692 4.824-1.104 1.104-2.712 1.656-4.824 1.656-2.616 0-4.452-.804-5.508-2.412a6.249 6.249 0 0 1-.54-.936 5.98 5.98 0 0 1-.288-1.044 17.436 17.436 0 0 1-.18-1.368 41.963 41.963 0 0 1-.036-1.872V7.684c0-1.512.132-2.676.396-3.492a4.228 4.228 0 0 1 1.44-2.088C3.224 1.12 4.868.628 6.956.628c4.2 0 6.3 2.136 6.3 6.408v3.096H8.072V7.684c0-1.008-.096-1.692-.288-2.052-.168-.36-.516-.54-1.044-.54-.624 0-1.032.264-1.224.792-.072.192-.12.408-.144.648-.024.216-.036.6-.036 1.152v10.044c0 .744.012 1.272.036 1.584.024.288.096.54.216.756.192.456.564.684 1.116.684.264 0 .492-.06.684-.18.216-.144.372-.336.468-.576.096-.192.156-.444.18-.756.024-.336.036-.84.036-1.512v-3.204h5.184Zm1.795-7.236c0-2.184.552-3.84 1.656-4.968C17.81 1.192 19.43.628 21.567.628c4.368 0 6.552 2.22 6.552 6.66v12.348c0 1.752-.588 3.144-1.764 4.176-1.176 1.032-2.784 1.548-4.824 1.548-2.016 0-3.6-.54-4.752-1.62-1.152-1.08-1.728-2.556-1.728-4.428V7.288Zm7.92.36c0-1.056-.096-1.764-.288-2.124-.192-.384-.54-.576-1.044-.576-.552 0-.936.204-1.152.612-.192.384-.288 1.08-.288 2.088v10.008c0 .624.012 1.08.036 1.368.024.264.084.504.18.72.216.6.636.9 1.26.9.528 0 .888-.252 1.08-.756.048-.12.084-.228.108-.324.024-.12.048-.252.072-.396.024-.168.036-.372.036-.612V7.648ZM43.37 25h-5.436L35.2 11.68l.108 1.692.18 2.376c.024.24.036.528.036.864.024.312.036.672.036 1.08V25h-5.148V.988h5.472l2.772 11.844-.108-1.62-.144-1.908c-.048-.48-.084-.924-.108-1.332a18.19 18.19 0 0 1-.036-1.044V.988h5.112V25ZM45.907.988h10.476v4.644H51.09v3.78h5.22v4.572h-5.22V25h-5.184V.988Zm12.015 0h10.584v4.68h-5.4v3.744h5.184v4.572h-5.184v6.336h5.616V25h-10.8V.988Zm14.306 4.824h-2.952V.988h11.196v4.824h-3.06V25h-5.184V5.812Zm11.312 0h-2.952V.988h11.196v4.824h-3.06V25H83.54V5.812ZM93.088.988h5.184V25h-5.184V.988Z"/></svg>